<?xml version="1.0" encoding="UTF-8"?>
<!DOCTYPE svg PUBLIC "-//W3C//DTD SVG 1.0//EN" "http://www.w3.org/TR/2001/REC-SVG-20010904/DTD/svg10.dtd">
<!-- Creator: CorelDRAW -->
<svg xmlns="http://www.w3.org/2000/svg" xml:space="preserve" width="104.291mm" height="104.291mm" version="1.0" style="shape-rendering:geometricPrecision; text-rendering:geometricPrecision; image-rendering:optimizeQuality; fill-rule:evenodd; clip-rule:evenodd"
viewBox="0 0 8021.72 8021.72"
 xmlns:xlink="http://www.w3.org/1999/xlink"
 xmlns:xodm="http://www.corel.com/coreldraw/odm/2003">
 <defs>
  <style type="text/css">
   <![CDATA[
    .fil0 {fill:none}
    .fil2 {fill:#7C5DFF}
    .fil1 {fill:black;fill-rule:nonzero}
   ]]>
  </style>
 </defs>
 <g id="Layer_x0020_1">
  <metadata id="CorelCorpID_0Corel-Layer"/>
  <rect class="fil0" x="-0" y="-0" width="8021.72" height="8021.72" rx="715.89" ry="715.89"/>
  <path class="fil1" d="M3881.71 5617.06l0 -594.08 -2113.29 0c-83.14,0 -153.38,-28.67 -210.71,-86.01 -57.34,-57.33 -86.01,-127.57 -86.01,-210.71l0 -301.02 2408.19 0 1.82 -3.65 0 -589.8 -3007.76 0 0 894.47c0,123.27 23.65,239.39 70.96,348.32 47.3,108.94 111.09,203.55 191.37,283.82 80.27,80.28 174.88,144.06 283.82,191.37 108.94,47.3 225.05,70.96 348.32,70.96l2111.47 0 1.82 -3.67z"/>
  <path class="fil1" d="M6893.55 3831.79c0,734.27 95.91,593.45 -662.79,593.45l-1210.3 0c-86.01,0 -149.8,20.78 -191.36,62.35 -41.57,41.57 -70.24,92.46 -86.01,152.66 -15.77,60.21 -22.94,124.7 -21.5,193.51 1.43,68.81 2.15,131.88 2.15,189.21 0,712.72 114.96,597.75 -597.75,597.75l0 -894.47c0,-123.27 23.65,-239.39 70.96,-348.32 47.3,-108.94 111.09,-203.55 191.37,-283.82 80.27,-80.28 174.88,-144.06 283.82,-191.37 108.94,-47.3 225.05,-70.96 348.32,-70.96l1873.09 0z"/>
  <path class="fil2" d="M1471.69 3589.65l0 -301.03c0,-83.14 28.67,-153.38 86.01,-210.71 57.33,-57.34 127.57,-86.01 210.71,-86.01l2113.29 0 0 -594.08 -1.82 -3.67 -2111.47 0c-123.27,0 -239.39,23.65 -348.32,70.96 -108.94,47.3 -203.55,111.09 -283.82,191.37 -80.28,80.27 -144.06,174.88 -191.37,283.82 -47.3,108.94 -70.96,225.05 -70.96,348.32l0 323.58 597.75 0 0 -22.55z"/>
  <rect class="fil2" x="3872.42" y="2394.14" width="3275.37" height="597.28"/>
 </g>
</svg>
